<?xml version="1.0" encoding="UTF-8"?>
<!DOCTYPE svg PUBLIC "-//W3C//DTD SVG 1.1//EN" "http://www.w3.org/Graphics/SVG/1.1/DTD/svg11.dtd">
<svg version="1.1" xmlns="http://www.w3.org/2000/svg" xmlns:xlink="http://www.w3.org/1999/xlink" width="24" height="24"  xml:space="preserve" id="info_Icon">
    <!-- Generated by PaintCode - http://www.paintcodeapp.com -->
    <g id="info_Icon-group">
        <path id="info_Icon-oval" stroke="none" fill="rgb(34, 11, 91)" d="M 20,12.5 C 20,16.64 16.64,20 12.5,20 8.36,20 5,16.64 5,12.5 5,8.36 8.36,5 12.5,5 16.64,5 20,8.36 20,12.5 L 19,12.5 C 19,8.91 16.09,6 12.5,6 8.91,6 6,8.91 6,12.5 6,16.09 8.91,19 12.5,19 16.09,19 19,16.09 19,12.5 L 20,12.5 Z M 20,12.5" />
        <circle id="info_Icon-oval2" stroke="none" fill="rgb(34, 11, 91)" cx="12.5" cy="9.5" r="1" />
        <rect id="info_Icon-rectangle" stroke="none" fill="rgb(34, 11, 91)" x="11.75" y="11.5" width="1.5" height="5.5" rx="0.75" />
    </g>
</svg>
