<?xml version="1.0" encoding="UTF-8"?>
<!DOCTYPE svg PUBLIC "-//W3C//DTD SVG 1.1//EN" "http://www.w3.org/Graphics/SVG/1.1/DTD/svg11.dtd">
<svg version="1.1" xmlns="http://www.w3.org/2000/svg" xmlns:xlink="http://www.w3.org/1999/xlink" width="24" height="24"  xml:space="preserve" id="refresh_Icon">
    <!-- Generated by PaintCode - http://www.paintcodeapp.com -->
    <g id="refresh_Icon-group" clip-path="url(#refresh_Icon-rectangle)">
        <clipPath id="refresh_Icon-rectangle">
            <rect x="0" y="-15" width="15" height="15"  transform="translate(5, 20)" />
        </clipPath>
        <path id="refresh_Icon-bezier3" stroke="none" fill="rgb(34, 11, 91)" d="M 17.93,7.24 C 17.72,7.45 17.49,7.68 17.23,7.94 15.66,6.28 13.34,5.62 11.18,6.22 10.89,6.3 10.6,6.4 10.31,6.53 10.09,6.63 9.86,6.74 9.64,6.88 8.54,7.54 7.71,8.49 7.19,9.59 7.18,9.6 7.1,9.78 7.1,9.78 7.9,10.25 8.61,10.68 8.61,10.68 L 5.02,12.85 C 5.01,12.85 5,8.52 5,8.52 5,8.52 5.58,8.86 6.27,9.28 6.84,8.02 7.75,6.92 8.96,6.14 L 9.16,6.01 C 9.35,5.9 9.54,5.79 9.73,5.7 12.53,4.34 15.82,5.01 17.93,7.24 Z M 17.93,7.24" />
        <path id="refresh_Icon-bezier2" stroke="none" fill="rgb(34, 11, 91)" d="M 19.98,12.16 C 19.99,12.15 20,16.48 20,16.48 20,16.48 19.42,16.14 18.73,15.72 18.13,17.05 17.15,18.2 15.84,18.99 15.65,19.1 15.46,19.21 15.27,19.3 12.51,20.64 9.27,20.01 7.16,17.84 7.3,17.7 7.54,17.46 7.85,17.15 9.42,18.74 11.7,19.37 13.82,18.78 14.35,18.64 14.86,18.42 15.36,18.12 16.46,17.46 17.29,16.51 17.81,15.41 17.82,15.4 17.9,15.22 17.9,15.22 17.1,14.75 16.39,14.32 16.39,14.32 L 19.98,12.15 19.98,12.16 Z M 19.98,12.16" />
    </g>
</svg>
